<?xml version="1.0" ?><svg viewBox="0 0 16 16" xmlns="http://www.w3.org/2000/svg"><title/><g data-name="Layer 7" id="Layer_7"><path d="M14,1h-.5a.5.5,0,0,0-1,0h-4a.5.5,0,0,0-1,0h-4a.5.5,0,0,0-1,0H2A2.0023,2.0023,0,0,0,0,3V14a2.0023,2.0023,0,0,0,2,2H14a2.0023,2.0023,0,0,0,2-2V3A2.0023,2.0023,0,0,0,14,1ZM1,3A1,1,0,0,1,2,2h.5V3a.5.5,0,0,0,1,0V2h4V3a.5.5,0,0,0,1,0V2h4V3a.5.5,0,0,0,1,0V2H14a1,1,0,0,1,1,1V4.5H1ZM15,14a1,1,0,0,1-1,1H2a1,1,0,0,1-1-1V5.5H15Z"/><path d="M8,11.4375A1.4375,1.4375,0,1,0,6.5625,10,1.439,1.439,0,0,0,8,11.4375Zm0-1.875A.4375.4375,0,1,1,7.5625,10,.438.438,0,0,1,8,9.5625Z"/><path d="M4.3574,11.4375h.1719l-.126.126a.6126.6126,0,0,0,.0039.8545L5.582,13.5923a.6065.6065,0,0,0,.8584,0l.1221-.1221v.1729A.608.608,0,0,0,7.17,14.25H8.83a.608.608,0,0,0,.6074-.6069V13.47l.1221.1221a.6074.6074,0,0,0,.8584,0l1.1787-1.1782a.6126.6126,0,0,0-.0039-.8545l-.1221-.1221h.1719a.608.608,0,0,0,.6074-.6069V9.1694a.608.608,0,0,0-.6074-.6069h-.1719l.126-.126a.6126.6126,0,0,0-.0039-.8545L10.418,6.4077a.6083.6083,0,0,0-.8584,0L9.4375,6.53V6.3569A.608.608,0,0,0,8.83,5.75H7.17a.608.608,0,0,0-.6074.6069V6.53L6.44,6.4077a.6092.6092,0,0,0-.8584,0L4.4033,7.5859a.6126.6126,0,0,0,.0039.8545l.1221.1221H4.3574a.608.608,0,0,0-.6074.6069v1.6612A.608.608,0,0,0,4.3574,11.4375ZM4.75,9.5625h.7285a.6525.6525,0,0,0,.5-.4009l.0381-.0928a.5.5,0,0,0-.1094-.5429l-.5146-.5147.6191-.6186.5147.5146a.6532.6532,0,0,0,.6357.0708L7.2549,7.94a.5.5,0,0,0,.3076-.4615V6.75h.875v.728a.5.5,0,0,0,.3076.4615l.1826.0756a.4976.4976,0,0,0,.5459-.1079l.5147-.5146.6191.6186-.5146.5147a.5.5,0,0,0-.1094.5429l.0752.1832a.5008.5008,0,0,0,.4629.31H11.25v.875h-.7285a.6525.6525,0,0,0-.5.4009l-.0381.0928a.5.5,0,0,0,.1094.5429l.5146.5147-.6191.6186-.5147-.5146a.6532.6532,0,0,0-.6357-.0708l-.0928.0385a.5.5,0,0,0-.3076.4615v.728h-.875v-.728a.5.5,0,0,0-.3076-.4615l-.1826-.0756a.4994.4994,0,0,0-.5459.1079l-.5147.5146-.6191-.6186.5146-.5147a.5.5,0,0,0,.1094-.5429l-.0752-.1832a.5008.5008,0,0,0-.4629-.31H4.75Z"/></g></svg>