<?xml version="1.0" ?><svg viewBox="0 0 16 16" xmlns="http://www.w3.org/2000/svg"><title/><g data-name="Layer 7" id="Layer_7"><path d="M14,1h-.5a.5.5,0,0,0-1,0h-4a.5.5,0,0,0-1,0h-4a.5.5,0,0,0-1,0H2A2.0023,2.0023,0,0,0,0,3V14a2.0023,2.0023,0,0,0,2,2H14a2.0023,2.0023,0,0,0,2-2V3A2.0023,2.0023,0,0,0,14,1ZM1,3A1,1,0,0,1,2,2h.5V3a.5.5,0,0,0,1,0V2h4V3a.5.5,0,0,0,1,0V2h4V3a.5.5,0,0,0,1,0V2H14a1,1,0,0,1,1,1V4.5H1ZM15,14a1,1,0,0,1-1,1H2a1,1,0,0,1-1-1V5.5H15Z"/><path d="M4.7534,10.9536,5.1,10.6069V13a.5.5,0,0,0,.5.5h4.8a.5.5,0,0,0,.5-.5V10.6069l.3467.3467a.5.5,0,1,0,.707-.707l-1.2-1.2-.0012-.0012L8.3535,6.6465a.5.5,0,0,0-.707,0L5.2472,9.0458,5.246,9.047l-1.2,1.2a.5.5,0,1,0,.707.707ZM8,7.707l1.9,1.9V12.5H6.1V9.6069Z"/></g></svg>